<svg xmlns="http://www.w3.org/2000/svg" version="1.1" xmlns:xlink="http://www.w3.org/1999/xlink" xmlns:svgjs="http://svgjs.dev/svgjs" width="1500" height="1500" viewBox="0 0 1500 1500"><rect width="1500" height="1500" fill="#ffffff"></rect><g transform="matrix(0.6666666666666666,0,0,0.6666666666666666,249.39393939393938,606.0887454052793)"><svg viewBox="0 0 396 114" data-background-color="#e5f141" preserveAspectRatio="xMidYMid meet" height="431" width="1500" xmlns="http://www.w3.org/2000/svg" xmlns:xlink="http://www.w3.org/1999/xlink"><g id="tight-bounds" transform="matrix(1,0,0,1,0.2400000000000091,0.0970406860725177)"><svg viewBox="0 0 395.52 113.80591862785498" height="113.80591862785498" width="395.52"><g><svg viewBox="0 0 619.5875129386835 178.27853479049065" height="113.80591862785498" width="395.52"><g><rect width="7.485393603904307" height="178.27853479049065" x="415.1152712144092" y="0" fill="#000000" opacity="1" stroke-width="0" stroke="transparent" fill-opacity="1" class="rect-qz-0" data-fill-palette-color="primary" rx="1%" id="qz-0" data-palette-color="#4d98e4"></rect></g><g transform="matrix(1,0,0,1,0,0.44347894226488904)"><svg viewBox="0 0 395.52 177.39157690596087" height="177.39157690596087" width="395.52"><g id="textblocktransform"><svg viewBox="0 0 395.52 177.39157690596087" height="177.39157690596087" width="395.52" id="textblock"><g><svg viewBox="0 0 395.52 177.39157690596087" height="177.39157690596087" width="395.52"><g transform="matrix(1,0,0,1,0,0)"><svg width="395.52" viewBox="1.8999999999999986 -43.36000000000001 208.47999999999996 90.5" height="177.39157690596087" data-palette-color="#4d98e4"><svg></svg><svg></svg><g class="wordmark-text-0" data-fill-palette-color="primary" id="text-0"><path d="M13.43 0h-11.53v-42.97h11.82c3.093 0 5.42 0.86 6.98 2.58 1.567 1.713 2.35 4.223 2.35 7.53v0 20.12c0 4.067-0.713 7.207-2.14 9.42-1.427 2.213-3.92 3.32-7.48 3.32zM10.55-35.45v27.86h1.49c1.573 0 2.36-0.767 2.36-2.3v0-22.17c0-1.427-0.19-2.35-0.57-2.77-0.38-0.413-1.157-0.62-2.33-0.62v0zM34.47 0h-8.3v-42.97h8.3zM55.32 0h-17.43v-42.97h8.59v35.65h8.84zM67.97 0.39v0c-3.927 0-6.757-0.977-8.49-2.93-1.733-1.953-2.6-5.063-2.6-9.33v0-4.19h8.5v5.37c0 0.993 0.15 1.77 0.45 2.33 0.3 0.56 0.827 0.84 1.58 0.84v0c0.78 0 1.32-0.227 1.62-0.68 0.3-0.46 0.45-1.21 0.45-2.25v0c0-1.32-0.13-2.423-0.39-3.31-0.26-0.887-0.71-1.733-1.35-2.54-0.647-0.8-1.54-1.74-2.68-2.82v0l-3.85-3.66c-2.887-2.72-4.33-5.827-4.33-9.32v0c0-3.667 0.853-6.46 2.56-8.38 1.7-1.92 4.16-2.88 7.38-2.88v0c3.94 0 6.737 1.05 8.39 3.15 1.653 2.1 2.48 5.29 2.48 9.57v0h-8.74v-2.95c0-0.587-0.17-1.043-0.51-1.37-0.333-0.327-0.783-0.49-1.35-0.49v0c-0.687 0-1.187 0.19-1.5 0.57-0.32 0.387-0.48 0.88-0.48 1.48v0c0 0.6 0.163 1.25 0.49 1.95 0.327 0.7 0.97 1.507 1.93 2.42v0l4.96 4.76c0.987 0.947 1.897 1.943 2.73 2.99 0.827 1.053 1.493 2.277 2 3.67 0.507 1.387 0.76 3.083 0.76 5.09v0c0 4.033-0.747 7.193-2.24 9.48-1.487 2.287-4.077 3.43-7.77 3.43zM89.38 0h-8.55v-42.97h8.55v15.36h4.05v-15.36h8.55v42.97h-8.55v-19.48h-4.05zM112.96 0h-8.35l4.15-42.97h14.58l4.08 42.97h-8.13l-0.61-6.93h-5.18zM115.75-35.64l-1.64 21.85h3.91l-1.88-21.85zM138.45 0h-8.4v-42.97h8.84l3.96 20.58v-20.58h8.3v42.97h-8.4l-4.3-21.48z" fill="#000000" fill-rule="nonzero" stroke="none" stroke-width="1" stroke-linecap="butt" stroke-linejoin="miter" stroke-miterlimit="10" stroke-dasharray="" stroke-dashoffset="0" font-family="none" font-weight="none" font-size="none" text-anchor="none" style="mix-blend-mode: normal" data-fill-palette-color="primary" opacity="1"></path><path transform="translate(0,46.75)" d="M19.65 0h-17.75v-42.97h17.19v8.3h-8.45v8.38h8.11v8.08h-8.11v9.84h9.01zM30.88 0h-8.39v-42.97h8.83l3.96 20.58v-20.58h8.3v42.97h-8.4l-4.3-21.48zM59.67 0h-8.6v-34.72h-5.1v-8.25h18.8v8.25h-5.1zM84.91 0h-17.75v-42.97h17.19v8.3h-8.45v8.38h8.11v8.08h-8.11v9.84h9.01zM96.44 0h-8.7v-42.97h13.19c2.193 0 3.853 0.5 4.98 1.5 1.12 1 1.873 2.4 2.26 4.2 0.38 1.8 0.57 3.913 0.57 6.34v0c0 2.34-0.297 4.21-0.89 5.61-0.593 1.4-1.713 2.37-3.36 2.91v0c1.353 0.273 2.303 0.943 2.85 2.01 0.54 1.067 0.81 2.447 0.81 4.14v0 16.26h-8.47v-16.82c0-1.253-0.257-2.03-0.77-2.33-0.513-0.3-1.337-0.45-2.47-0.45v0zM96.48-35.01v7.96h2.08c1.187 0 1.78-1.293 1.78-3.88v0c0-1.68-0.13-2.78-0.39-3.3-0.26-0.52-0.747-0.78-1.46-0.78v0zM120.02 0h-8.45v-42.97h11.35c2.38 0 4.267 0.53 5.66 1.59 1.387 1.06 2.383 2.563 2.99 4.51 0.6 1.953 0.9 4.283 0.9 6.99v0c0 2.6-0.253 4.867-0.76 6.8-0.5 1.927-1.397 3.42-2.69 4.48-1.293 1.053-3.13 1.58-5.51 1.58v0h-3.49zM120.02-35.13v10.4h0.49c1.593 0 2.57-0.447 2.93-1.34 0.353-0.9 0.53-2.22 0.53-3.96v0c0-1.627-0.173-2.883-0.52-3.77-0.353-0.887-1.18-1.33-2.48-1.33v0zM143.09 0h-8.3v-42.97h8.3zM156.71 0.39v0c-3.92 0-6.747-0.977-8.48-2.93-1.733-1.953-2.6-5.063-2.6-9.33v0-4.19h8.5v5.37c0 0.993 0.15 1.77 0.45 2.33 0.3 0.56 0.823 0.84 1.57 0.84v0c0.78 0 1.323-0.227 1.63-0.68 0.3-0.46 0.45-1.21 0.45-2.25v0c0-1.32-0.13-2.423-0.39-3.31-0.26-0.887-0.713-1.733-1.36-2.54-0.64-0.8-1.53-1.74-2.67-2.82v0l-3.86-3.66c-2.88-2.72-4.32-5.827-4.32-9.32v0c0-3.667 0.85-6.46 2.55-8.38 1.7-1.92 4.163-2.88 7.39-2.88v0c3.933 0 6.727 1.05 8.38 3.15 1.653 2.1 2.48 5.29 2.48 9.57v0h-8.74v-2.95c0-0.587-0.167-1.043-0.5-1.37-0.333-0.327-0.787-0.49-1.36-0.49v0c-0.68 0-1.18 0.19-1.5 0.57-0.313 0.387-0.47 0.88-0.47 1.48v0c0 0.6 0.163 1.25 0.49 1.95 0.32 0.7 0.96 1.507 1.92 2.42v0l4.96 4.76c0.993 0.947 1.903 1.943 2.73 2.99 0.833 1.053 1.503 2.277 2.01 3.67 0.5 1.387 0.75 3.083 0.75 5.09v0c0 4.033-0.743 7.193-2.23 9.48-1.487 2.287-4.08 3.43-7.78 3.43zM187.33 0h-17.75v-42.97h17.19v8.3h-8.45v8.38h8.11v8.08h-8.11v9.84h9.01zM200.37 0.39v0c-3.927 0-6.757-0.977-8.49-2.93-1.733-1.953-2.6-5.063-2.6-9.33v0-4.19h8.5v5.37c0 0.993 0.15 1.77 0.45 2.33 0.3 0.56 0.823 0.84 1.57 0.84v0c0.787 0 1.33-0.227 1.63-0.68 0.3-0.46 0.45-1.21 0.45-2.25v0c0-1.32-0.13-2.423-0.39-3.31-0.26-0.887-0.713-1.733-1.36-2.54-0.64-0.8-1.53-1.74-2.67-2.82v0l-3.86-3.66c-2.88-2.72-4.32-5.827-4.32-9.32v0c0-3.667 0.85-6.46 2.55-8.38 1.7-1.92 4.163-2.88 7.39-2.88v0c3.94 0 6.733 1.05 8.38 3.15 1.653 2.1 2.48 5.29 2.48 9.57v0h-8.74v-2.95c0-0.587-0.167-1.043-0.5-1.37-0.333-0.327-0.783-0.49-1.35-0.49v0c-0.687 0-1.187 0.19-1.5 0.57-0.32 0.387-0.48 0.88-0.48 1.48v0c0 0.6 0.163 1.25 0.49 1.95 0.327 0.7 0.97 1.507 1.93 2.42v0l4.95 4.76c0.993 0.947 1.907 1.943 2.74 2.99 0.827 1.053 1.493 2.277 2 3.67 0.507 1.387 0.76 3.083 0.76 5.09v0c0 4.033-0.747 7.193-2.24 9.48-1.487 2.287-4.077 3.43-7.77 3.43z" fill="#000000" fill-rule="nonzero" stroke="none" stroke-width="1" stroke-linecap="butt" stroke-linejoin="miter" stroke-miterlimit="10" stroke-dasharray="" stroke-dashoffset="0" font-family="none" font-weight="none" font-size="none" text-anchor="none" style="mix-blend-mode: normal" data-fill-palette-color="primary" opacity="1"></path></g></svg></g></svg></g></svg></g></svg></g><g transform="matrix(1,0,0,1,442.19593603272267,0.44347894226488904)"><svg viewBox="0 0 177.39157690596087 177.39157690596087" height="177.39157690596087" width="177.39157690596087"><g><svg xmlns="http://www.w3.org/2000/svg" xmlns:xlink="http://www.w3.org/1999/xlink" version="1.1" x="0" y="0" viewBox="5 5 90 90" enable-background="new 0 0 100 100" xml:space="preserve" height="177.39157690596087" width="177.39157690596087" class="icon-icon-0" data-fill-palette-color="accent" id="icon-0"><path d="M50 5C25.146 5 5 25.146 5 50s20.146 45 45 45 45-20.146 45-45S74.854 5 50 5zM50 82c-17.644 0-32-14.355-32-32 0-17.644 14.355-32 32-32 17.645 0 32 14.355 32 32C82 67.645 67.645 82 50 82zM50 56c-3.315 0-6-2.686-6-6 0-3.315 2.685-6 6-6 3.314 0 6 2.685 6 6C56 53.314 53.314 56 50 56zM50 23c3.055 0 6.297 0.837 6.297 0.837 1.33 0.347 1.855 1.602 1.166 2.793l-6.211 10.737c-0.688 1.189-1.813 1.189-2.502-0.002l-6.194-10.742c-0.688-1.191-0.161-2.446 1.169-2.791C43.726 23.833 46.953 23 50 23zM48.748 62.632c0.688-1.188 1.814-1.188 2.502 0.003l6.196 10.742c0.688 1.191 0.161 2.445-1.172 2.79 0 0-3.228 0.833-6.274 0.833-3.054 0-6.296-0.838-6.296-0.838-1.331-0.347-1.855-1.602-1.167-2.793L48.748 62.632zM26.619 36.499c1.526-2.644 3.875-5.032 3.875-5.032 0.962-0.979 2.312-0.808 2.998 0.383l6.194 10.747c0.686 1.191 0.125 2.168-1.252 2.168l-12.4-0.007c-1.375 0-2.197-1.084-1.831-2.41C24.202 42.349 25.095 39.141 26.619 36.499zM60.314 57.402c-0.686-1.191-0.124-2.168 1.253-2.168l12.399 0.005c1.377 0 2.2 1.084 1.832 2.412 0 0-0.895 3.208-2.418 5.85-1.525 2.644-3.874 5.032-3.874 5.032-0.962 0.979-2.312 0.808-2.998-0.384L60.314 57.402zM26.619 63.501c-1.528-2.646-2.422-5.874-2.422-5.874-0.369-1.323 0.457-2.404 1.833-2.402l12.402 0.01c1.375 0 1.938 0.972 1.25 2.168l-6.206 10.732c-0.686 1.191-2.036 1.362-3 0.381C30.476 68.516 28.142 66.138 26.619 63.501zM61.567 44.768c-1.374-0.002-1.938-0.974-1.25-2.168l6.204-10.735c0.688-1.194 2.038-1.365 3.002-0.381 0 0 2.334 2.378 3.857 5.017 1.529 2.644 2.422 5.872 2.422 5.872 0.369 1.323-0.456 2.407-1.83 2.405L61.567 44.768z" fill="#000000" data-fill-palette-color="accent"></path></svg></g></svg></g></svg></g><defs></defs></svg><rect width="395.52" height="113.80591862785498" fill="none" stroke="none" visibility="hidden"></rect></g></svg></g></svg>